# Blender v2.93.2 OBJ File: 'untitled.blend'
# www.blender.org
mtllib untitled.mtl
o Cylinder
v 0.000135 -0.053147 -1.000000
v -0.000135 0.053147 -1.000000
v -0.194955 -0.053641 -0.980785
v -0.195224 0.052652 -0.980785
v -0.382547 -0.054117 -0.923880
v -0.382817 0.052176 -0.923880
v -0.555434 -0.054555 -0.831470
v -0.555703 0.051738 -0.831470
v -0.706970 -0.054940 -0.707107
v -0.707239 0.051354 -0.707107
v -0.831332 -0.055255 -0.555570
v -0.831602 0.051038 -0.555570
v -0.923742 -0.055489 -0.382683
v -0.924011 0.050804 -0.382683
v -0.980647 -0.055634 -0.195090
v -0.980917 0.050660 -0.195090
v -0.999862 -0.055682 -0.000000
v -1.000131 0.050611 -0.000000
v -0.980647 -0.055634 0.195090
v -0.980917 0.050660 0.195090
v -0.923742 -0.055489 0.382683
v -0.924011 0.050804 0.382683
v -0.831332 -0.055255 0.555570
v -0.831602 0.051038 0.555570
v -0.706970 -0.054940 0.707107
v -0.707239 0.051354 0.707107
v -0.555434 -0.054555 0.831470
v -0.555703 0.051738 0.831470
v -0.382547 -0.054117 0.923880
v -0.382817 0.052176 0.923880
v -0.194955 -0.053641 0.980785
v -0.195224 0.052652 0.980785
v 0.000135 -0.053147 1.000000
v -0.000134 0.053147 1.000000
v 0.195225 -0.052652 0.980785
v 0.194955 0.053641 0.980785
v 0.382817 -0.052176 0.923879
v 0.382548 0.054117 0.923879
v 0.555704 -0.051738 0.831469
v 0.555434 0.054555 0.831469
v 0.707240 -0.051354 0.707106
v 0.706970 0.054940 0.707106
v 0.831602 -0.051038 0.555570
v 0.831333 0.055255 0.555570
v 0.924012 -0.050804 0.382683
v 0.923742 0.055489 0.382683
v 0.980917 -0.050660 0.195089
v 0.980648 0.055634 0.195089
v 1.000131 -0.050611 -0.000001
v 0.999862 0.055682 -0.000001
v 0.980917 -0.050660 -0.195091
v 0.980647 0.055634 -0.195091
v 0.924011 -0.050804 -0.382684
v 0.923741 0.055489 -0.382684
v 0.831601 -0.051038 -0.555571
v 0.831331 0.055255 -0.555571
v 0.707238 -0.051354 -0.707108
v 0.706969 0.054940 -0.707108
v 0.555702 -0.051738 -0.831470
v 0.555433 0.054555 -0.831470
v 0.382816 -0.052176 -0.923880
v 0.382546 0.054117 -0.923880
v 0.195223 -0.052652 -0.980786
v 0.194953 0.053641 -0.980786
vt 0.443972 0.500885
vt 0.441849 0.500885
vt 0.441849 0.519115
vt 0.443972 0.519115
vt 0.439725 0.500885
vt 0.439725 0.519115
vt 0.437602 0.500885
vt 0.437602 0.519115
vt 0.435479 0.500885
vt 0.435479 0.519115
vt 0.433356 0.500885
vt 0.433356 0.519115
vt 0.431232 0.500885
vt 0.431232 0.519115
vt 0.429109 0.500885
vt 0.429109 0.519115
vt 0.426986 0.500885
vt 0.426986 0.519115
vt 0.424863 0.500885
vt 0.424863 0.519115
vt 0.422739 0.500885
vt 0.422739 0.519115
vt 0.420616 0.500885
vt 0.420616 0.519115
vt 0.418493 0.500885
vt 0.418493 0.519115
vt 0.416370 0.500885
vt 0.416370 0.519115
vt 0.414246 0.500885
vt 0.414246 0.519115
vt 0.412123 0.500885
vt 0.412123 0.519115
vt 0.410000 0.500885
vt 0.410000 0.519115
vt 0.407877 0.500885
vt 0.407877 0.519115
vt 0.405753 0.500885
vt 0.405753 0.519115
vt 0.403630 0.500885
vt 0.403630 0.519115
vt 0.401507 0.500885
vt 0.401507 0.519115
vt 0.399384 0.500885
vt 0.399384 0.519115
vt 0.397260 0.500885
vt 0.397260 0.519115
vt 0.395137 0.500885
vt 0.395137 0.519115
vt 0.393014 0.500885
vt 0.393014 0.519115
vt 0.390891 0.500885
vt 0.390891 0.519115
vt 0.388767 0.500885
vt 0.388767 0.519115
vt 0.386644 0.500885
vt 0.386644 0.519115
vt 0.384521 0.500885
vt 0.384521 0.519115
vt 0.382398 0.500885
vt 0.382398 0.519115
vt 0.380274 0.500885
vt 0.380274 0.519115
vt 0.303570 0.928528
vt 0.345466 0.903664
vt 0.384077 0.863288
vt 0.417920 0.808951
vt 0.445694 0.742742
vt 0.466332 0.667203
vt 0.479041 0.585239
vt 0.483332 0.500000
vt 0.479041 0.414761
vt 0.466332 0.332797
vt 0.445694 0.257259
vt 0.417920 0.191049
vt 0.384077 0.136712
vt 0.345465 0.096336
vt 0.303570 0.071473
vt 0.260000 0.063077
vt 0.216430 0.071473
vt 0.174534 0.096336
vt 0.135923 0.136712
vt 0.102080 0.191049
vt 0.074306 0.257259
vt 0.053668 0.332797
vt 0.040959 0.414761
vt 0.036668 0.500001
vt 0.040959 0.585240
vt 0.053668 0.667204
vt 0.074306 0.742742
vt 0.102081 0.808952
vt 0.135924 0.863288
vt 0.174535 0.903664
vt 0.216430 0.928528
vt 0.260000 0.936923
vt 0.378151 0.500885
vt 0.378151 0.519115
vt 0.376028 0.500885
vt 0.376028 0.519115
vt 0.750000 0.951100
vt 0.706601 0.942432
vt 0.664870 0.916762
vt 0.626410 0.875076
vt 0.592700 0.818976
vt 0.565035 0.750618
vt 0.544478 0.672629
vt 0.531818 0.588006
vt 0.527544 0.500001
vt 0.531818 0.411995
vt 0.544477 0.327372
vt 0.565034 0.249383
vt 0.592700 0.181024
vt 0.626410 0.124924
vt 0.664870 0.083238
vt 0.706601 0.057568
vt 0.750000 0.048900
vt 0.793399 0.057568
vt 0.835130 0.083238
vt 0.873590 0.124924
vt 0.907300 0.181024
vt 0.934966 0.249382
vt 0.955522 0.327372
vt 0.968182 0.411995
vt 0.972456 0.500000
vt 0.968182 0.588005
vt 0.955522 0.672629
vt 0.934966 0.750618
vt 0.907300 0.818976
vt 0.873590 0.875076
vt 0.835130 0.916762
vt 0.793399 0.942432
vn -0.0980 -0.0002 -0.9952
vn -0.2903 -0.0007 -0.9569
vn -0.4714 -0.0012 -0.8819
vn -0.6344 -0.0016 -0.7730
vn -0.7730 -0.0020 -0.6344
vn -0.8819 -0.0022 -0.4714
vn -0.9569 -0.0024 -0.2903
vn -0.9952 -0.0025 -0.0980
vn -0.9952 -0.0025 0.0980
vn -0.9569 -0.0024 0.2903
vn -0.8819 -0.0022 0.4714
vn -0.7730 -0.0020 0.6344
vn -0.6344 -0.0016 0.7730
vn -0.4714 -0.0012 0.8819
vn -0.2903 -0.0007 0.9569
vn -0.0980 -0.0002 0.9952
vn 0.0980 0.0002 0.9952
vn 0.2903 0.0007 0.9569
vn 0.4714 0.0012 0.8819
vn 0.6344 0.0016 0.7730
vn 0.7730 0.0020 0.6344
vn 0.8819 0.0022 0.4714
vn 0.9569 0.0024 0.2903
vn 0.9952 0.0025 0.0980
vn 0.9952 0.0025 -0.0980
vn 0.9569 0.0024 -0.2903
vn 0.8819 0.0022 -0.4714
vn 0.7730 0.0020 -0.6344
vn 0.6344 0.0016 -0.7730
vn 0.4714 0.0012 -0.8819
vn -0.0025 1.0000 -0.0000
vn 0.2903 0.0007 -0.9569
vn 0.0980 0.0002 -0.9952
vn 0.0025 -1.0000 -0.0000
usemtl None
s off
f 1/1/1 3/2/1 4/3/1 2/4/1
f 3/2/2 5/5/2 6/6/2 4/3/2
f 5/5/3 7/7/3 8/8/3 6/6/3
f 7/7/4 9/9/4 10/10/4 8/8/4
f 9/9/5 11/11/5 12/12/5 10/10/5
f 11/11/6 13/13/6 14/14/6 12/12/6
f 13/13/7 15/15/7 16/16/7 14/14/7
f 15/15/8 17/17/8 18/18/8 16/16/8
f 17/17/9 19/19/9 20/20/9 18/18/9
f 19/19/10 21/21/10 22/22/10 20/20/10
f 21/21/11 23/23/11 24/24/11 22/22/11
f 23/23/12 25/25/12 26/26/12 24/24/12
f 25/25/13 27/27/13 28/28/13 26/26/13
f 27/27/14 29/29/14 30/30/14 28/28/14
f 29/29/15 31/31/15 32/32/15 30/30/15
f 31/31/16 33/33/16 34/34/16 32/32/16
f 33/33/17 35/35/17 36/36/17 34/34/17
f 35/35/18 37/37/18 38/38/18 36/36/18
f 37/37/19 39/39/19 40/40/19 38/38/19
f 39/39/20 41/41/20 42/42/20 40/40/20
f 41/41/21 43/43/21 44/44/21 42/42/21
f 43/43/22 45/45/22 46/46/22 44/44/22
f 45/45/23 47/47/23 48/48/23 46/46/23
f 47/47/24 49/49/24 50/50/24 48/48/24
f 49/49/25 51/51/25 52/52/25 50/50/25
f 51/51/26 53/53/26 54/54/26 52/52/26
f 53/53/27 55/55/27 56/56/27 54/54/27
f 55/55/28 57/57/28 58/58/28 56/56/28
f 57/57/29 59/59/29 60/60/29 58/58/29
f 59/59/30 61/61/30 62/62/30 60/60/30
f 4/63/31 6/64/31 8/65/31 10/66/31 12/67/31 14/68/31 16/69/31 18/70/31 20/71/31 22/72/31 24/73/31 26/74/31 28/75/31 30/76/31 32/77/31 34/78/31 36/79/31 38/80/31 40/81/31 42/82/31 44/83/31 46/84/31 48/85/31 50/86/31 52/87/31 54/88/31 56/89/31 58/90/31 60/91/31 62/92/31 64/93/31 2/94/31
f 61/61/32 63/95/32 64/96/32 62/62/32
f 63/95/33 1/97/33 2/98/33 64/96/33
f 1/99/34 63/100/34 61/101/34 59/102/34 57/103/34 55/104/34 53/105/34 51/106/34 49/107/34 47/108/34 45/109/34 43/110/34 41/111/34 39/112/34 37/113/34 35/114/34 33/115/34 31/116/34 29/117/34 27/118/34 25/119/34 23/120/34 21/121/34 19/122/34 17/123/34 15/124/34 13/125/34 11/126/34 9/127/34 7/128/34 5/129/34 3/130/34
